<svg width="229" height="67" viewBox="0 0 229 67" fill="none" xmlns="http://www.w3.org/2000/svg">
<path d="M10.0527 42.4316C11.7207 39.257 16.1132 37.0963 18.4793 39.7175C19.8133 41.1953 21.8143 43.4121 23.8153 39.7175C25.8163 36.0229 22.2459 29.6251 11.8093 31.5894C1.37262 33.5537 -3.41064 50.7001 3.95099 59.3362C11.3126 67.9724 23.8153 68.6904 32.7124 63.3379C36.5873 61.0068 39.339 57.3389 40.0949 54.4171C41.7224 48.1263 36.8422 42.6074 32.7124 49.4519C26.6645 59.4755 16.6678 59.0713 11.8093 55.7473C7.86146 53.0463 7.85945 46.6057 10.0527 42.4316Z" fill="url(#paint0_linear_23_14)"/>
<path d="M37.7595 41.0099C37.7595 41.0099 46.1609 21.0426 46.4287 19.6609L46.3204 19.3985C46.4474 19.2459 46.4962 19.3125 46.4287 19.6609L52.4921 34.3605C49.8831 38.3251 44.9071 48.8597 44.9071 48.8597L37.7595 41.0099Z" fill="#F6C908"/>
<path d="M15.0691 6.65616C12.0898 2.21871 5.4693 0 5.4693 0C5.4693 0 24.6688 2.85263 27.9791 6.65616C31.2894 10.4597 36.509 32.0989 42.5443 42.7897C49.1648 54.5173 63.7507 62.1518 71.1436 65.0044C62.4989 65.0044 56.4476 65.294 52.9897 65.0044C45.4507 64.3732 29.6342 48.812 25.6619 34.2318C25.6619 34.2318 18.0483 11.0936 15.0691 6.65616Z" fill="url(#paint1_linear_23_14)"/>
<path d="M73.8936 30.625C75.027 30.625 76.1103 30.4333 77.1436 30.05C78.1936 29.65 79.1936 29.0083 80.1436 28.125L81.3936 29.625C80.4436 30.5083 79.2936 31.2083 77.9436 31.725C76.5936 32.2417 75.1603 32.5 73.6436 32.5C72.0769 32.5 70.6603 32.3 69.3936 31.9C68.1436 31.5 67.0686 30.9083 66.1686 30.125C65.2853 29.3417 64.6019 28.375 64.1186 27.225C63.6353 26.075 63.3936 24.75 63.3936 23.25C63.3936 21.75 63.6269 20.425 64.0936 19.275C64.5769 18.125 65.2519 17.1583 66.1186 16.375C67.0019 15.5917 68.0603 15 69.2936 14.6C70.5269 14.2 71.8936 14 73.3936 14C74.9103 14 76.3436 14.2583 77.6936 14.775C79.0436 15.2917 80.1936 15.9917 81.1436 16.875L79.8936 18.375C78.9436 17.4917 77.9436 16.8583 76.8936 16.475C75.8603 16.075 74.7769 15.875 73.6436 15.875C72.7436 15.875 71.9019 16.025 71.1186 16.325C70.3353 16.6083 69.6603 17.05 69.0936 17.65C68.5269 18.25 68.0769 19.0167 67.7436 19.95C67.4269 20.8667 67.2686 21.9667 67.2686 23.25C67.2686 24.5333 67.4269 25.6417 67.7436 26.575C68.0769 27.4917 68.5353 28.25 69.1186 28.85C69.7186 29.45 70.4186 29.9 71.2186 30.2C72.0353 30.4833 72.9269 30.625 73.8936 30.625ZM91.8878 14C93.4044 14 94.8378 14.2583 96.1878 14.775C97.5378 15.2917 98.6878 15.9917 99.6378 16.875L98.3878 18.375C97.4378 17.4917 96.4378 16.8583 95.3878 16.475C94.3544 16.075 93.2711 15.875 92.1378 15.875C91.2878 15.875 90.5044 16.025 89.7878 16.325C89.0711 16.6083 88.4461 17.05 87.9128 17.65C87.3961 18.25 86.9878 19.0167 86.6878 19.95C86.4044 20.8667 86.2628 21.9667 86.2628 23.25C86.2628 24.5667 86.4128 25.7 86.7128 26.65C87.0128 27.5833 87.4294 28.3583 87.9628 28.975C88.4961 29.575 89.1378 30.025 89.8878 30.325C90.6544 30.6083 91.4878 30.75 92.3878 30.75C93.1378 30.75 93.7794 30.6833 94.3128 30.55C94.8628 30.4167 95.3211 30.2583 95.6878 30.075C96.1211 29.875 96.4794 29.6417 96.7628 29.375V24.625H93.5128V23H100.388V29.875C99.7711 30.375 99.0544 30.8167 98.2378 31.2C97.5378 31.5333 96.6711 31.8333 95.6378 32.1C94.6211 32.3667 93.4544 32.5 92.1378 32.5C90.6378 32.5 89.2878 32.3 88.0878 31.9C86.8878 31.5 85.8628 30.9083 85.0128 30.125C84.1628 29.3417 83.5128 28.375 83.0628 27.225C82.6128 26.075 82.3878 24.75 82.3878 23.25C82.3878 21.75 82.6128 20.425 83.0628 19.275C83.5128 18.125 84.1461 17.1583 84.9628 16.375C85.7961 15.5917 86.7961 15 87.9628 14.6C89.1461 14.2 90.4544 14 91.8878 14ZM70.8936 47.5C71.4269 47.5 71.9603 47.55 72.4936 47.65C73.0269 47.7333 73.5353 47.8583 74.0186 48.025C74.5186 48.175 74.9769 48.3667 75.3936 48.6C75.827 48.8333 76.202 49.0917 76.5186 49.375L75.5186 50.875C74.8353 50.3583 74.1353 49.9583 73.4186 49.675C72.7186 49.3917 71.9603 49.25 71.1436 49.25C70.5436 49.25 69.9936 49.35 69.4936 49.55C68.9936 49.7333 68.5603 50.0417 68.1936 50.475C67.8269 50.8917 67.5353 51.4333 67.3186 52.1C67.1186 52.7667 67.0186 53.5667 67.0186 54.5C67.0186 55.4333 67.1186 56.2333 67.3186 56.9C67.5353 57.5667 67.8353 58.1167 68.2186 58.55C68.6019 58.9667 69.0603 59.275 69.5936 59.475C70.1436 59.6583 70.7436 59.75 71.3936 59.75C72.2103 59.75 72.9686 59.6083 73.6686 59.325C74.3853 59.0417 75.0853 58.6417 75.7686 58.125L76.7686 59.625C76.452 59.9083 76.0769 60.1667 75.6436 60.4C75.2269 60.6333 74.7686 60.8333 74.2686 61C73.7853 61.15 73.2769 61.2667 72.7436 61.35C72.2103 61.45 71.6769 61.5 71.1436 61.5C69.9603 61.5 68.8769 61.3417 67.8936 61.025C66.9269 60.725 66.1019 60.2833 65.4186 59.7C64.7353 59.1 64.2019 58.3667 63.8186 57.5C63.4519 56.6333 63.2686 55.6333 63.2686 54.5C63.2686 53.3833 63.4519 52.3917 63.8186 51.525C64.2019 50.6417 64.7269 49.9083 65.3936 49.325C66.0603 48.725 66.8603 48.275 67.7936 47.975C68.7269 47.6583 69.7603 47.5 70.8936 47.5ZM85.5176 59.875C86.051 59.875 86.551 59.775 87.0176 59.575C87.4843 59.375 87.8926 59.0667 88.2426 58.65C88.5926 58.2167 88.8676 57.6583 89.0676 56.975C89.2843 56.2917 89.3926 55.4667 89.3926 54.5C89.3926 53.5333 89.2843 52.7083 89.0676 52.025C88.8676 51.3417 88.5926 50.7917 88.2426 50.375C87.8926 49.9417 87.4843 49.625 87.0176 49.425C86.551 49.225 86.051 49.125 85.5176 49.125C84.9843 49.125 84.4843 49.225 84.0176 49.425C83.551 49.625 83.1426 49.9417 82.7926 50.375C82.4426 50.7917 82.1593 51.3417 81.9426 52.025C81.7426 52.7083 81.6426 53.5333 81.6426 54.5C81.6426 55.4667 81.7426 56.2917 81.9426 56.975C82.1593 57.6583 82.4426 58.2167 82.7926 58.65C83.1426 59.0667 83.551 59.375 84.0176 59.575C84.4843 59.775 84.9843 59.875 85.5176 59.875ZM85.5176 47.5C86.6343 47.5 87.6593 47.6583 88.5926 47.975C89.5426 48.275 90.351 48.725 91.0176 49.325C91.6843 49.9083 92.201 50.6417 92.5676 51.525C92.951 52.3917 93.1426 53.3833 93.1426 54.5C93.1426 55.6333 92.951 56.6333 92.5676 57.5C92.201 58.3667 91.6843 59.1 91.0176 59.7C90.351 60.2833 89.5426 60.725 88.5926 61.025C87.6593 61.3417 86.6343 61.5 85.5176 61.5C84.3843 61.5 83.351 61.3417 82.4176 61.025C81.4843 60.725 80.6843 60.2833 80.0176 59.7C79.351 59.1 78.826 58.3667 78.4426 57.5C78.076 56.6333 77.8926 55.6333 77.8926 54.5C77.8926 53.3833 78.076 52.3917 78.4426 51.525C78.826 50.6417 79.351 49.9083 80.0176 49.325C80.6843 48.725 81.4843 48.275 82.4176 47.975C83.351 47.6583 84.3843 47.5 85.5176 47.5ZM96.0225 48H109.023C111.406 48 113.164 48.4333 114.298 49.3C115.448 50.15 116.023 51.425 116.023 53.125V61H112.523V53.125C112.523 51.925 112.223 51.0667 111.623 50.55C111.023 50.0167 110.156 49.75 109.023 49.75H107.773V61H104.273V49.75H99.5225V61H96.0225V48ZM119.387 48H132.387C134.77 48 136.528 48.4333 137.662 49.3C138.812 50.15 139.387 51.425 139.387 53.125V61H135.887V53.125C135.887 51.925 135.587 51.0667 134.987 50.55C134.387 50.0167 133.52 49.75 132.387 49.75H131.137V61H127.637V49.75H122.887V61H119.387V48ZM142.751 48H146.251V55.875C146.251 57.075 146.551 57.9417 147.151 58.475C147.751 58.9917 148.618 59.25 149.751 59.25H153.001V48H156.501V61H149.751C147.368 61 145.601 60.575 144.451 59.725C143.318 58.8583 142.751 57.575 142.751 55.875V48ZM173.762 61H170.262V53.125C170.262 51.925 169.962 51.0667 169.362 50.55C168.762 50.0167 167.895 49.75 166.762 49.75H163.512V61H160.012V48H166.762C169.145 48 170.903 48.4333 172.037 49.3C173.187 50.15 173.762 51.425 173.762 53.125V61ZM180.751 61H177.251V48.25H180.751V61ZM180.876 44.875C180.876 45.375 180.701 45.8167 180.351 46.2C180.018 46.5667 179.568 46.75 179.001 46.75C178.434 46.75 177.976 46.5667 177.626 46.2C177.293 45.8167 177.126 45.375 177.126 44.875C177.126 44.375 177.293 43.9417 177.626 43.575C177.976 43.1917 178.434 43 179.001 43C179.551 43 180.001 43.1917 180.351 43.575C180.701 43.9417 180.876 44.375 180.876 44.875ZM185.502 49.75H183.127V48H185.502V44H189.002V48H192.877V49.75H189.002V56.25C189.002 56.8833 189.069 57.425 189.202 57.875C189.352 58.3083 189.544 58.6667 189.777 58.95C190.027 59.2167 190.31 59.4167 190.627 59.55C190.944 59.6833 191.277 59.75 191.627 59.75C192.127 59.75 192.61 59.675 193.077 59.525C193.544 59.3583 193.935 59.1833 194.252 59L195.002 60.625C194.502 60.875 193.927 61.0833 193.277 61.25C192.644 61.4167 192.01 61.5 191.377 61.5C189.494 61.5 188.044 61.0333 187.027 60.1C186.01 59.1667 185.502 57.8833 185.502 56.25V49.75ZM207.249 60.5H203.999C201.616 60.5 199.849 60.075 198.699 59.225C197.566 58.3583 196.999 57.075 196.999 55.375V48H200.499V55.375C200.499 56.575 200.799 57.4417 201.399 57.975C201.999 58.4917 202.866 58.75 203.999 58.75H207.249V48H210.749V60.75C210.749 61.5333 210.599 62.2417 210.299 62.875C209.999 63.525 209.549 64.0833 208.949 64.55C208.366 65.0167 207.624 65.375 206.724 65.625C205.841 65.875 204.807 66 203.624 66C203.224 66 202.791 65.9667 202.324 65.9C201.874 65.85 201.416 65.7583 200.949 65.625C200.482 65.5083 200.024 65.35 199.574 65.15C199.141 64.9667 198.741 64.75 198.374 64.5L199.374 63C199.941 63.3833 200.574 63.6833 201.274 63.9C201.974 64.1333 202.674 64.25 203.374 64.25C204.624 64.25 205.582 63.9667 206.249 63.4C206.916 62.8333 207.249 61.95 207.249 60.75V60.5Z" fill="#FA9C04"/>
<defs>
<linearGradient id="paint0_linear_23_14" x1="-0.940908" y1="40.5898" x2="55.2603" y2="61.1077" gradientUnits="userSpaceOnUse">
<stop stop-color="#FD7A01"/>
<stop offset="1" stop-color="#FF6600" stop-opacity="0"/>
</linearGradient>
<linearGradient id="paint1_linear_23_14" x1="38.3065" y1="0" x2="38.3065" y2="65.1331" gradientUnits="userSpaceOnUse">
<stop stop-color="#F6D009"/>
<stop offset="1" stop-color="#FF6B00"/>
</linearGradient>
</defs>
</svg>
